<?xml version="1.0" encoding="UTF-8"?>
<svg id="Capa_2" data-name="Capa 2" xmlns="http://www.w3.org/2000/svg" viewBox="0 0 565 920">
  <defs>
    <style>
      .cls-1 {
        fill: #4b9bec;
      }
    </style>
  </defs>
  <g id="LOGO">
    <g>
      <path class="cls-1" d="M462.5,718.58v98.92H102.5v-98.92s14.99,22.87,33.53,24.49h292.95c18.53-1.62,33.53-24.49,33.53-24.49ZM282.48,460.5l180.02,69.78v120.45l-180.02,69.78-179.98-69.78v-120.45l179.98-69.78ZM415.45,586.49l-132.97-51.54-132.92,51.53v8.06l132.92,51.54,132.97-51.54v-8.04ZM462.5,346.42v-98.92s-14.99,22.87-33.53,24.49h-111.73v-24.49h-69.54v24.49h-111.68c-18.53-1.62-33.53-24.49-33.53-24.49v98.93h145.2s0,8.04,0,8.04l-145.2,56.29v74.43l179.98-69.77,180.02,69.79v-74.43l-145.25-56.31v-8.04h145.25Z"/>
      <path class="cls-1" d="M378.39,142.5c.52,7.08,3.59,14.15,11.55,15.28.66.09,1.31.14,1.95.14,7.58,0,13.57-6.35,16.07-13.92,1.07-3.23,1.99-8.19,2.48-11.69,2.49-17.73,3.14-29.64,2.02-47.78-1.32-21.21-5.47-40.55-12.71-57.29C392.84,11.23,381.71.97,367.44.06,366.76.02,366.07,0,365.37,0c-15.29,0-32.27,10.43-41.37,29.89-8.76,18.74-15.78,37.99-20.03,47.8-4.32,9.96-10.66,16.1-20.41,17.12-.77.08-1.53.12-2.29.12-10.95,0-20.38-8.31-27.42-19.85-6.56-10.76-19.56-31.23-26.51-38.11-6.43-6.37-13.77-14.31-28.84-14.31-.23,0-.46,0-.69,0-12.28.2-34.94,6.25-45.29,48.53-4.51,18.42-6.25,37.62-2.39,60.48,3.56,21.08,9.87,39.28,14.12,49.3,1.46,3.46,3.74,7.06,5.49,9.28,3.17,4.01,7.67,5.34,11.45,5.34,2.23,0,4.21-.46,5.52-1.11,3.85-1.89,8.26-6.47,6.66-16.91-.77-5.04-3.01-12.42-4.26-16.52-3.85-12.58-8.98-27.77-9.43-38.59-.6-14.47,5.11-16.36,8.9-17.2.55-.12,1.09-.18,1.63-.18,5.67,0,10.52,6.53,15.16,14.54,6.06,10.47,16.44,29,24.9,43.17,7.39,12.37,20.83,25.58,42.2,25.58.72,0,1.45-.02,2.2-.05,23.09-.96,40.12-9.76,48.89-37.51,6.56-20.75,11.03-36.26,18.23-52.14,7.29-16.08,16.72-25.58,25.21-25.58,1.15,0,2.29.17,3.4.53,8.63,2.77,10.79,11.21,10.89,23.61.09,10.97-1.17,23.06-2.17,31.94-.36,3.22-1.01,9.71-.74,13.31Z"/>
      <path class="cls-1" d="M437.79,90c.37,8.86.29,16.68-.3,25h102.51v780H25V115h98.2c-.41-8.35-.18-16.64.69-25H0v830h565V90h-127.21Z"/>
    </g>
  </g>
</svg>